<mxfile host="app.diagrams.net" modified="2021-06-30T11:01:40.468Z" agent="5.0 (Macintosh; Intel Mac OS X 10_15_7) AppleWebKit/537.36 (KHTML, like Gecko) Chrome/91.0.4472.114 Safari/537.36" etag="-n2aWCDjEHzZ32tqrB-T" version="13.5.9" type="github">
  <diagram id="duzB47Je8lDqxq_LkMD5" name="Page-1">
    <mxGraphModel dx="1031" dy="616" grid="1" gridSize="10" guides="1" tooltips="1" connect="1" arrows="1" fold="1" page="1" pageScale="1" pageWidth="827" pageHeight="1169" math="0" shadow="0">
      <root>
        <mxCell id="0" />
        <mxCell id="1" parent="0" />
        <mxCell id="5bm-MmD4y-qV84A5UPUL-17" style="edgeStyle=orthogonalEdgeStyle;rounded=0;orthogonalLoop=1;jettySize=auto;html=1;exitX=0.5;exitY=1;exitDx=0;exitDy=0;" parent="1" source="zSg7VoGUR8RJTwEOMfWe-74" edge="1">
          <mxGeometry relative="1" as="geometry">
            <mxPoint x="357" y="1680" as="targetPoint" />
          </mxGeometry>
        </mxCell>
        <mxCell id="zSg7VoGUR8RJTwEOMfWe-74" value="&lt;pre style=&quot;background-color: rgb(255 , 255 , 255) ; font-family: &amp;#34;jetbrains mono&amp;#34; , monospace ; font-size: 9.8pt&quot;&gt;&lt;pre style=&quot;font-family: &amp;#34;jetbrains mono&amp;#34; , monospace ; font-size: 9.8pt&quot;&gt;&lt;pre style=&quot;font-family: &amp;#34;jetbrains mono&amp;#34; , monospace ; font-size: 9.8pt&quot;&gt;&lt;pre style=&quot;font-family: &amp;#34;jetbrains mono&amp;#34; , monospace ; font-size: 9.8pt&quot;&gt;&lt;span style=&quot;font-style: italic&quot;&gt;ContractTransitionNotification /&lt;/span&gt;&lt;/pre&gt;&lt;/pre&gt;&lt;pre style=&quot;font-family: &amp;#34;jetbrains mono&amp;#34; , monospace ; font-size: 9.8pt&quot;&gt;PaymentInstrumentExpirationNotification/&lt;/pre&gt;&lt;pre style=&quot;font-family: &amp;#34;jetbrains mono&amp;#34; , monospace ; font-size: 9.8pt&quot;&gt;&lt;pre style=&quot;font-family: &amp;#34;jetbrains mono&amp;#34; , monospace ; font-size: 9.8pt&quot;&gt;&lt;span style=&quot;font-style: italic&quot;&gt;FreeTrialEndNotification /&lt;/span&gt;&lt;/pre&gt;&lt;pre style=&quot;font-family: &amp;#34;jetbrains mono&amp;#34; , monospace ; font-size: 9.8pt&quot;&gt;&lt;pre style=&quot;font-family: &amp;#34;jetbrains mono&amp;#34; , monospace ; font-size: 9.8pt&quot;&gt;&lt;span style=&quot;font-style: italic&quot;&gt;GiftPeriodEndNotification&lt;/span&gt;&lt;/pre&gt;&lt;/pre&gt;&lt;/pre&gt;&lt;/pre&gt;&lt;/pre&gt;" style="rhombus;whiteSpace=wrap;html=1;" parent="1" vertex="1">
          <mxGeometry x="180.13" y="1460" width="352.75" height="190" as="geometry" />
        </mxCell>
        <mxCell id="zSg7VoGUR8RJTwEOMfWe-1" value="Action sweeper" style="rounded=0;whiteSpace=wrap;html=1;direction=west;" parent="1" vertex="1">
          <mxGeometry x="289.75" y="63.5" width="123" height="70" as="geometry" />
        </mxCell>
        <mxCell id="zSg7VoGUR8RJTwEOMfWe-7" value="Work flow Queue" style="outlineConnect=0;fontColor=#232F3E;gradientColor=none;strokeColor=#232F3E;fillColor=#ffffff;dashed=0;verticalLabelPosition=bottom;verticalAlign=top;align=center;html=1;fontSize=12;fontStyle=0;aspect=fixed;shape=mxgraph.aws4.resourceIcon;resIcon=mxgraph.aws4.queue;" parent="1" vertex="1">
          <mxGeometry x="319.5" y="220" width="60" height="60" as="geometry" />
        </mxCell>
        <mxCell id="zSg7VoGUR8RJTwEOMfWe-19" value="Payment Service" style="text;html=1;align=center;verticalAlign=middle;resizable=0;points=[];autosize=1;" parent="1" vertex="1">
          <mxGeometry x="316.5" y="10" width="110" height="20" as="geometry" />
        </mxCell>
        <mxCell id="zSg7VoGUR8RJTwEOMfWe-43" value="" style="verticalLabelPosition=bottom;html=1;verticalAlign=top;align=center;strokeColor=none;fillColor=#00BEF2;shape=mxgraph.azure.scheduler;pointerEvents=1;" parent="1" vertex="1">
          <mxGeometry x="372.75" y="63.5" width="40" height="36.5" as="geometry" />
        </mxCell>
        <mxCell id="zSg7VoGUR8RJTwEOMfWe-51" value="Work flow Queue" style="outlineConnect=0;fontColor=#232F3E;gradientColor=none;strokeColor=#232F3E;fillColor=#ffffff;dashed=0;verticalLabelPosition=bottom;verticalAlign=top;align=center;html=1;fontSize=12;fontStyle=0;aspect=fixed;shape=mxgraph.aws4.resourceIcon;resIcon=mxgraph.aws4.queue;" parent="1" vertex="1">
          <mxGeometry x="321.38" y="365.38" width="59.75" height="59.75" as="geometry" />
        </mxCell>
        <mxCell id="zSg7VoGUR8RJTwEOMfWe-52" value="Checkout Service" style="text;html=1;align=center;verticalAlign=middle;resizable=0;points=[];autosize=1;" parent="1" vertex="1">
          <mxGeometry x="296.25" y="345.38" width="110" height="20" as="geometry" />
        </mxCell>
        <mxCell id="5bm-MmD4y-qV84A5UPUL-15" value="" style="edgeStyle=orthogonalEdgeStyle;rounded=0;orthogonalLoop=1;jettySize=auto;html=1;" parent="1" source="zSg7VoGUR8RJTwEOMfWe-53" target="zSg7VoGUR8RJTwEOMfWe-56" edge="1">
          <mxGeometry relative="1" as="geometry" />
        </mxCell>
        <mxCell id="zSg7VoGUR8RJTwEOMfWe-53" value="&lt;span&gt;Process action&amp;nbsp;&lt;/span&gt;" style="rounded=0;whiteSpace=wrap;html=1;direction=west;" parent="1" vertex="1">
          <mxGeometry x="298" y="515" width="123" height="70" as="geometry" />
        </mxCell>
        <mxCell id="zSg7VoGUR8RJTwEOMfWe-54" value="" style="endArrow=classic;html=1;" parent="1" target="zSg7VoGUR8RJTwEOMfWe-53" edge="1">
          <mxGeometry width="50" height="50" relative="1" as="geometry">
            <mxPoint x="360" y="450" as="sourcePoint" />
            <mxPoint x="413" y="415" as="targetPoint" />
          </mxGeometry>
        </mxCell>
        <mxCell id="zSg7VoGUR8RJTwEOMfWe-55" value="" style="verticalLabelPosition=bottom;html=1;verticalAlign=top;align=center;strokeColor=none;fillColor=#00BEF2;shape=mxgraph.azure.scheduler;pointerEvents=1;" parent="1" vertex="1">
          <mxGeometry x="381" y="515" width="40" height="36.5" as="geometry" />
        </mxCell>
        <mxCell id="5bm-MmD4y-qV84A5UPUL-18" value="" style="edgeStyle=orthogonalEdgeStyle;rounded=0;orthogonalLoop=1;jettySize=auto;html=1;" parent="1" source="zSg7VoGUR8RJTwEOMfWe-56" target="zSg7VoGUR8RJTwEOMfWe-58" edge="1">
          <mxGeometry relative="1" as="geometry" />
        </mxCell>
        <mxCell id="zSg7VoGUR8RJTwEOMfWe-56" value="&lt;span&gt;Process action Runner&amp;nbsp;&lt;/span&gt;" style="rounded=0;whiteSpace=wrap;html=1;direction=west;" parent="1" vertex="1">
          <mxGeometry x="298" y="680" width="123" height="70" as="geometry" />
        </mxCell>
        <mxCell id="5bm-MmD4y-qV84A5UPUL-20" value="" style="edgeStyle=orthogonalEdgeStyle;rounded=0;orthogonalLoop=1;jettySize=auto;html=1;" parent="1" source="zSg7VoGUR8RJTwEOMfWe-58" target="zSg7VoGUR8RJTwEOMfWe-64" edge="1">
          <mxGeometry relative="1" as="geometry" />
        </mxCell>
        <mxCell id="zSg7VoGUR8RJTwEOMfWe-58" value="Switch&lt;br&gt;&amp;lt;&lt;span style=&quot;font-family: &amp;#34;jetbrains mono&amp;#34; , monospace ; font-size: 9.8pt&quot;&gt;action&lt;/span&gt;&lt;span style=&quot;background-color: rgb(255 , 255 , 255) ; font-family: &amp;#34;jetbrains mono&amp;#34; , monospace ; font-size: 9.8pt&quot;&gt;.getType()&amp;gt;&lt;/span&gt;" style="rounded=0;whiteSpace=wrap;html=1;" parent="1" vertex="1">
          <mxGeometry x="264.5" y="850" width="190" height="60" as="geometry" />
        </mxCell>
        <mxCell id="5bm-MmD4y-qV84A5UPUL-27" value="" style="edgeStyle=orthogonalEdgeStyle;rounded=0;orthogonalLoop=1;jettySize=auto;html=1;" parent="1" source="zSg7VoGUR8RJTwEOMfWe-64" target="5bm-MmD4y-qV84A5UPUL-21" edge="1">
          <mxGeometry relative="1" as="geometry">
            <Array as="points">
              <mxPoint x="650" y="1000" />
            </Array>
          </mxGeometry>
        </mxCell>
        <mxCell id="zSg7VoGUR8RJTwEOMfWe-64" value="&lt;pre style=&quot;background-color: #ffffff ; color: #080808 ; font-family: &amp;#34;jetbrains mono&amp;#34; , monospace ; font-size: 9.8pt&quot;&gt;Bill/Rebill&lt;/pre&gt;" style="rhombus;whiteSpace=wrap;html=1;" parent="1" vertex="1">
          <mxGeometry x="319.5" y="960" width="80.5" height="80" as="geometry" />
        </mxCell>
        <mxCell id="zSg7VoGUR8RJTwEOMfWe-65" value="&lt;pre style=&quot;background-color: rgb(255 , 255 , 255) ; font-family: &amp;#34;jetbrains mono&amp;#34; , monospace ; font-size: 9.8pt&quot;&gt;&lt;span style=&quot;font-style: italic&quot;&gt;End&lt;/span&gt;&lt;/pre&gt;" style="rhombus;whiteSpace=wrap;html=1;" parent="1" vertex="1">
          <mxGeometry x="319.5" y="1060" width="80" height="80" as="geometry" />
        </mxCell>
        <mxCell id="5bm-MmD4y-qV84A5UPUL-6" value="" style="edgeStyle=orthogonalEdgeStyle;rounded=0;orthogonalLoop=1;jettySize=auto;html=1;" parent="1" source="zSg7VoGUR8RJTwEOMfWe-66" target="zSg7VoGUR8RJTwEOMfWe-67" edge="1">
          <mxGeometry relative="1" as="geometry" />
        </mxCell>
        <mxCell id="zSg7VoGUR8RJTwEOMfWe-66" value="&lt;pre style=&quot;background-color: rgb(255 , 255 , 255) ; font-family: &amp;#34;jetbrains mono&amp;#34; , monospace ; font-size: 9.8pt&quot;&gt;&lt;span style=&quot;font-style: italic&quot;&gt;Renew&lt;/span&gt;&lt;/pre&gt;" style="rhombus;whiteSpace=wrap;html=1;" parent="1" vertex="1">
          <mxGeometry x="319.5" y="1160" width="80" height="80" as="geometry" />
        </mxCell>
        <mxCell id="5bm-MmD4y-qV84A5UPUL-7" value="" style="edgeStyle=orthogonalEdgeStyle;rounded=0;orthogonalLoop=1;jettySize=auto;html=1;" parent="1" source="zSg7VoGUR8RJTwEOMfWe-67" target="zSg7VoGUR8RJTwEOMfWe-71" edge="1">
          <mxGeometry relative="1" as="geometry" />
        </mxCell>
        <mxCell id="zSg7VoGUR8RJTwEOMfWe-67" value="&lt;pre style=&quot;background-color: rgb(255 , 255 , 255) ; font-family: &amp;#34;jetbrains mono&amp;#34; , monospace ; font-size: 9.8pt&quot;&gt;&lt;span style=&quot;font-style: italic&quot;&gt;Cancel&lt;/span&gt;&lt;/pre&gt;" style="rhombus;whiteSpace=wrap;html=1;" parent="1" vertex="1">
          <mxGeometry x="319.5" y="1260" width="80" height="80" as="geometry" />
        </mxCell>
        <mxCell id="5bm-MmD4y-qV84A5UPUL-8" value="" style="edgeStyle=orthogonalEdgeStyle;rounded=0;orthogonalLoop=1;jettySize=auto;html=1;" parent="1" source="zSg7VoGUR8RJTwEOMfWe-71" target="zSg7VoGUR8RJTwEOMfWe-74" edge="1">
          <mxGeometry relative="1" as="geometry" />
        </mxCell>
        <mxCell id="zSg7VoGUR8RJTwEOMfWe-71" value="&lt;pre style=&quot;background-color: rgb(255 , 255 , 255) ; font-family: &amp;#34;jetbrains mono&amp;#34; , monospace ; font-size: 9.8pt&quot;&gt;&lt;pre style=&quot;font-family: &amp;#34;jetbrains mono&amp;#34; , monospace ; font-size: 9.8pt&quot;&gt;&lt;span style=&quot;font-style: italic&quot;&gt;Rollover&lt;/span&gt;&lt;/pre&gt;&lt;/pre&gt;" style="rhombus;whiteSpace=wrap;html=1;" parent="1" vertex="1">
          <mxGeometry x="316.5" y="1350" width="80" height="80" as="geometry" />
        </mxCell>
        <mxCell id="5bm-MmD4y-qV84A5UPUL-11" value="" style="edgeStyle=orthogonalEdgeStyle;rounded=0;orthogonalLoop=1;jettySize=auto;html=1;" parent="1" source="zSg7VoGUR8RJTwEOMfWe-75" target="zSg7VoGUR8RJTwEOMfWe-76" edge="1">
          <mxGeometry relative="1" as="geometry" />
        </mxCell>
        <mxCell id="zSg7VoGUR8RJTwEOMfWe-75" value="&lt;pre style=&quot;background-color: rgb(255 , 255 , 255) ; font-family: &amp;#34;jetbrains mono&amp;#34; , monospace ; font-size: 9.8pt&quot;&gt;&lt;pre style=&quot;font-family: &amp;#34;jetbrains mono&amp;#34; , monospace ; font-size: 9.8pt&quot;&gt;&lt;pre style=&quot;font-family: &amp;#34;jetbrains mono&amp;#34; , monospace ; font-size: 9.8pt&quot;&gt;&lt;span style=&quot;font-style: italic&quot;&gt;Create&lt;/span&gt;&lt;/pre&gt;&lt;/pre&gt;&lt;/pre&gt;" style="rhombus;whiteSpace=wrap;html=1;" parent="1" vertex="1">
          <mxGeometry x="316.5" y="1683.5" width="80" height="70" as="geometry" />
        </mxCell>
        <mxCell id="5bm-MmD4y-qV84A5UPUL-13" value="" style="edgeStyle=orthogonalEdgeStyle;rounded=0;orthogonalLoop=1;jettySize=auto;html=1;" parent="1" source="zSg7VoGUR8RJTwEOMfWe-76" target="5bm-MmD4y-qV84A5UPUL-2" edge="1">
          <mxGeometry relative="1" as="geometry" />
        </mxCell>
        <mxCell id="zSg7VoGUR8RJTwEOMfWe-76" value="&lt;pre style=&quot;background-color: rgb(255 , 255 , 255) ; font-family: &amp;#34;jetbrains mono&amp;#34; , monospace ; font-size: 9.8pt&quot;&gt;&lt;pre style=&quot;font-family: &amp;#34;jetbrains mono&amp;#34; , monospace ; font-size: 9.8pt&quot;&gt;&lt;pre style=&quot;font-family: &amp;#34;jetbrains mono&amp;#34; , monospace ; font-size: 9.8pt&quot;&gt;&lt;pre style=&quot;font-family: &amp;#34;jetbrains mono&amp;#34; , monospace ; font-size: 9.8pt&quot;&gt;&lt;span style=&quot;font-style: italic&quot;&gt;Change&lt;/span&gt;&lt;/pre&gt;&lt;/pre&gt;&lt;/pre&gt;&lt;/pre&gt;" style="rhombus;whiteSpace=wrap;html=1;" parent="1" vertex="1">
          <mxGeometry x="316.5" y="1800" width="80" height="70" as="geometry" />
        </mxCell>
        <mxCell id="zSg7VoGUR8RJTwEOMfWe-87" value="" style="endArrow=classic;html=1;" parent="1" edge="1">
          <mxGeometry width="50" height="50" relative="1" as="geometry">
            <mxPoint x="359" y="1040" as="sourcePoint" />
            <mxPoint x="359" y="1070" as="targetPoint" />
          </mxGeometry>
        </mxCell>
        <mxCell id="zSg7VoGUR8RJTwEOMfWe-88" value="" style="endArrow=classic;html=1;" parent="1" edge="1">
          <mxGeometry width="50" height="50" relative="1" as="geometry">
            <mxPoint x="359" y="1140" as="sourcePoint" />
            <mxPoint x="359" y="1170" as="targetPoint" />
            <Array as="points">
              <mxPoint x="359" y="1150" />
            </Array>
          </mxGeometry>
        </mxCell>
        <mxCell id="5bm-MmD4y-qV84A5UPUL-1" value="" style="endArrow=classic;html=1;" parent="1" target="zSg7VoGUR8RJTwEOMfWe-7" edge="1">
          <mxGeometry width="50" height="50" relative="1" as="geometry">
            <mxPoint x="350" y="140" as="sourcePoint" />
            <mxPoint x="440" y="230" as="targetPoint" />
          </mxGeometry>
        </mxCell>
        <mxCell id="5bm-MmD4y-qV84A5UPUL-2" value="&lt;pre style=&quot;background-color: rgb(255 , 255 , 255) ; font-family: &amp;#34;jetbrains mono&amp;#34; , monospace ; font-size: 9.8pt&quot;&gt;&lt;pre style=&quot;font-family: &amp;#34;jetbrains mono&amp;#34; , monospace ; font-size: 9.8pt&quot;&gt;&lt;pre style=&quot;font-family: &amp;#34;jetbrains mono&amp;#34; , monospace ; font-size: 9.8pt&quot;&gt;&lt;pre style=&quot;font-family: &amp;#34;jetbrains mono&amp;#34; , monospace ; font-size: 9.8pt&quot;&gt;&lt;span style=&quot;font-style: italic&quot;&gt;Change&lt;/span&gt;&lt;/pre&gt;&lt;/pre&gt;&lt;/pre&gt;&lt;/pre&gt;" style="rhombus;whiteSpace=wrap;html=1;" parent="1" vertex="1">
          <mxGeometry x="316.51" y="1920" width="80" height="70" as="geometry" />
        </mxCell>
        <mxCell id="5bm-MmD4y-qV84A5UPUL-28" value="" style="edgeStyle=orthogonalEdgeStyle;rounded=0;orthogonalLoop=1;jettySize=auto;html=1;" parent="1" source="5bm-MmD4y-qV84A5UPUL-21" target="5bm-MmD4y-qV84A5UPUL-22" edge="1">
          <mxGeometry relative="1" as="geometry" />
        </mxCell>
        <mxCell id="5bm-MmD4y-qV84A5UPUL-21" value="«interface»&lt;br&gt;&lt;pre style=&quot;background-color: #ffffff ; color: #080808 ; font-family: &amp;#34;jetbrains mono&amp;#34; , monospace ; font-size: 9.8pt&quot;&gt;&lt;span style=&quot;color: #000000&quot;&gt;CheckoutAdapter&lt;/span&gt;&lt;/pre&gt;" style="html=1;strokeColor=#000000;" parent="1" vertex="1">
          <mxGeometry x="540" y="1290" width="130" height="50" as="geometry" />
        </mxCell>
        <mxCell id="5bm-MmD4y-qV84A5UPUL-29" value="" style="edgeStyle=orthogonalEdgeStyle;rounded=0;orthogonalLoop=1;jettySize=auto;html=1;" parent="1" source="5bm-MmD4y-qV84A5UPUL-22" target="5bm-MmD4y-qV84A5UPUL-23" edge="1">
          <mxGeometry relative="1" as="geometry" />
        </mxCell>
        <mxCell id="5bm-MmD4y-qV84A5UPUL-22" value="&lt;p style=&quot;margin: 0px ; margin-top: 4px ; text-align: center&quot;&gt;&lt;b&gt;Class&lt;/b&gt;&lt;/p&gt;&lt;hr size=&quot;1&quot;&gt;&lt;div style=&quot;height: 2px&quot;&gt;&lt;pre style=&quot;background-color: #ffffff ; color: #080808 ; font-family: &amp;#34;jetbrains mono&amp;#34; , monospace ; font-size: 9.8pt&quot;&gt;&lt;span style=&quot;color: #000000&quot;&gt;GenericCheckoutAdapter&lt;/span&gt;&lt;/pre&gt;&lt;/div&gt;" style="verticalAlign=top;align=left;overflow=fill;fontSize=12;fontFamily=Helvetica;html=1;strokeColor=#000000;" parent="1" vertex="1">
          <mxGeometry x="760" y="1275" width="180" height="80" as="geometry" />
        </mxCell>
        <mxCell id="5bm-MmD4y-qV84A5UPUL-30" value="" style="edgeStyle=orthogonalEdgeStyle;rounded=0;orthogonalLoop=1;jettySize=auto;html=1;" parent="1" source="5bm-MmD4y-qV84A5UPUL-23" target="5bm-MmD4y-qV84A5UPUL-26" edge="1">
          <mxGeometry relative="1" as="geometry" />
        </mxCell>
        <mxCell id="5bm-MmD4y-qV84A5UPUL-23" value="«interface»&lt;br&gt;&lt;pre style=&quot;background-color: #ffffff ; color: #080808 ; font-family: &amp;#34;jetbrains mono&amp;#34; , monospace ; font-size: 9.8pt&quot;&gt;&lt;pre style=&quot;font-family: &amp;#34;jetbrains mono&amp;#34; , monospace ; font-size: 9.8pt&quot;&gt;&lt;span style=&quot;color: #000000&quot;&gt;SubscriptionProcessor&lt;/span&gt;&lt;/pre&gt;&lt;/pre&gt;" style="html=1;strokeColor=#000000;" parent="1" vertex="1">
          <mxGeometry x="980" y="1290" width="170" height="50" as="geometry" />
        </mxCell>
        <mxCell id="5bm-MmD4y-qV84A5UPUL-26" value="&lt;p style=&quot;margin: 0px ; margin-top: 4px ; text-align: center&quot;&gt;&lt;b&gt;Class&lt;/b&gt;&lt;/p&gt;&lt;hr size=&quot;1&quot;&gt;&lt;div style=&quot;height: 2px&quot;&gt;&lt;pre style=&quot;background-color: #ffffff ; color: #080808 ; font-family: &amp;#34;jetbrains mono&amp;#34; , monospace ; font-size: 9.8pt&quot;&gt;&lt;pre style=&quot;font-family: &amp;#34;jetbrains mono&amp;#34; , monospace ; font-size: 9.8pt&quot;&gt;&lt;span style=&quot;color: #000000&quot;&gt;DefaultSubscriptionProcessor&lt;/span&gt;&lt;/pre&gt;&lt;/pre&gt;&lt;/div&gt;" style="verticalAlign=top;align=left;overflow=fill;fontSize=12;fontFamily=Helvetica;html=1;strokeColor=#000000;" parent="1" vertex="1">
          <mxGeometry x="1180" y="1275" width="229" height="80" as="geometry" />
        </mxCell>
      </root>
    </mxGraphModel>
  </diagram>
</mxfile>
